<?xml version="1.0" encoding="UTF-8" standalone="no"?>
<!-- Generated by graphviz version 2.38.0 (20140413.2041)
 -->

<!-- Title: %3 Pages: 1 -->

<svg
   xmlns:osb="http://www.openswatchbook.org/uri/2009/osb"
   xmlns:dc="http://purl.org/dc/elements/1.1/"
   xmlns:cc="http://creativecommons.org/ns#"
   xmlns:rdf="http://www.w3.org/1999/02/22-rdf-syntax-ns#"
   xmlns:svg="http://www.w3.org/2000/svg"
   xmlns="http://www.w3.org/2000/svg"
   xmlns:xlink="http://www.w3.org/1999/xlink"
   xmlns:sodipodi="http://sodipodi.sourceforge.net/DTD/sodipodi-0.dtd"
   xmlns:inkscape="http://www.inkscape.org/namespaces/inkscape"
   width="2216pt"
   height="1526pt"
   viewBox="0.00 0.00 2215.50 1525.95"
   id="svg2"
   version="1.1"
   inkscape:version="0.91 r13725"
   sodipodi:docname="classprogression.svg">
  <metadata
     id="metadata370">
    <rdf:RDF>
      <cc:Work
         rdf:about="">
        <dc:format>image/svg+xml</dc:format>
        <dc:type
           rdf:resource="http://purl.org/dc/dcmitype/StillImage" />
        <dc:title></dc:title>
      </cc:Work>
    </rdf:RDF>
  </metadata>
  <defs
     id="defs368">
    <linearGradient
       inkscape:collect="always"
       id="linearGradient6722">
      <stop
         style="stop-color:#ffffff;stop-opacity:1;"
         offset="0"
         id="stop6724" />
      <stop
         style="stop-color:#ffffff;stop-opacity:0;"
         offset="1"
         id="stop6726" />
    </linearGradient>
    <linearGradient
       inkscape:collect="always"
       id="linearGradient6712">
      <stop
         style="stop-color:#ffffff;stop-opacity:1;"
         offset="0"
         id="stop6714" />
      <stop
         style="stop-color:#ffffff;stop-opacity:0;"
         offset="1"
         id="stop6716" />
    </linearGradient>
    <linearGradient
       inkscape:collect="always"
       id="linearGradient6702">
      <stop
         style="stop-color:#ffffff;stop-opacity:1;"
         offset="0"
         id="stop6704" />
      <stop
         style="stop-color:#ffffff;stop-opacity:0;"
         offset="1"
         id="stop6706" />
    </linearGradient>
    <linearGradient
       inkscape:collect="always"
       id="linearGradient6692">
      <stop
         style="stop-color:#ffffff;stop-opacity:1;"
         offset="0"
         id="stop6694" />
      <stop
         style="stop-color:#ffffff;stop-opacity:0;"
         offset="1"
         id="stop6696" />
    </linearGradient>
    <linearGradient
       inkscape:collect="always"
       id="linearGradient6682">
      <stop
         style="stop-color:#ffffff;stop-opacity:1;"
         offset="0"
         id="stop6684" />
      <stop
         style="stop-color:#ffffff;stop-opacity:0;"
         offset="1"
         id="stop6686" />
    </linearGradient>
    <linearGradient
       inkscape:collect="always"
       id="linearGradient6672">
      <stop
         style="stop-color:#ffffff;stop-opacity:1;"
         offset="0"
         id="stop6674" />
      <stop
         style="stop-color:#ffffff;stop-opacity:0;"
         offset="1"
         id="stop6676" />
    </linearGradient>
    <linearGradient
       id="linearGradient6652"
       osb:paint="solid">
      <stop
         style="stop-color:#0073e9;stop-opacity:1;"
         offset="0"
         id="stop6654" />
    </linearGradient>
    <radialGradient
       inkscape:collect="always"
       xlink:href="#linearGradient6672"
       id="radialGradient6678"
       cx="1458.5776"
       cy="875.72656"
       fx="1458.5776"
       fy="875.72656"
       r="95.4188"
       gradientTransform="matrix(1,0,0,1.6823309,0,-597.53534)"
       gradientUnits="userSpaceOnUse" />
    <radialGradient
       inkscape:collect="always"
       xlink:href="#linearGradient6682"
       id="radialGradient6688"
       cx="1527.3354"
       cy="397.29239"
       fx="1527.3354"
       fy="397.29239"
       r="134.287"
       gradientTransform="matrix(1,0,0,1.1991183,0,-79.108181)"
       gradientUnits="userSpaceOnUse" />
    <radialGradient
       inkscape:collect="always"
       xlink:href="#linearGradient6692"
       id="radialGradient6698"
       cx="836.7757"
       cy="182.14024"
       fx="836.7757"
       fy="182.14024"
       r="110.118"
       gradientTransform="matrix(1,0,0,1.4577635,0,-83.377164)"
       gradientUnits="userSpaceOnUse" />
    <radialGradient
       inkscape:collect="always"
       xlink:href="#linearGradient6702"
       id="radialGradient6708"
       cx="246.535"
       cy="766.53101"
       fx="246.535"
       fy="766.53101"
       r="124.902"
       gradientTransform="matrix(0.86930739,0,0,1.2892188,31.263925,-214.04412)"
       gradientUnits="userSpaceOnUse" />
    <radialGradient
       inkscape:collect="always"
       xlink:href="#linearGradient6712"
       id="radialGradient6718"
       cx="678.75897"
       cy="1361.437"
       fx="678.75897"
       fy="1361.437"
       r="89.191002"
       gradientTransform="matrix(1.1608421,0,0,2.0035337,-102.47836,-1365.2915)"
       gradientUnits="userSpaceOnUse" />
    <radialGradient
       inkscape:collect="always"
       xlink:href="#linearGradient6722"
       id="radialGradient6728"
       cx="1339.6157"
       cy="1308.2637"
       fx="1339.6157"
       fy="1308.2637"
       r="71.835701"
       gradientTransform="matrix(1.2681344,0,0,2.3484264,-345.80777,-1766.01)"
       gradientUnits="userSpaceOnUse" />
  </defs>
  <sodipodi:namedview
     pagecolor="#ffffff"
     bordercolor="#666666"
     borderopacity="1"
     objecttolerance="10"
     gridtolerance="10"
     guidetolerance="10"
     inkscape:pageopacity="0"
     inkscape:pageshadow="2"
     inkscape:window-width="1920"
     inkscape:window-height="1016"
     id="namedview366"
     showgrid="false"
     inkscape:zoom="0.59146802"
     inkscape:cx="1326.2219"
     inkscape:cy="807.89924"
     inkscape:window-x="0"
     inkscape:window-y="35"
     inkscape:window-maximized="1"
     inkscape:current-layer="svg2" />
  <path
     style="fill:#00730c;fill-opacity:1;fill-rule:evenodd;stroke:#000000;stroke-width:0.79997373px;stroke-linecap:butt;stroke-linejoin:miter;stroke-opacity:1;opacity:0.75"
     d="m 426.33082,273.09508 c -114.93315,11.13501 -205.05875,95.22383 -272.36888,182.67178 -31.67077,40.56555 -64.329686,82.34583 -75.259746,133.91896 -32.770077,124.20269 2.17371,254.30178 52.355466,368.72707 24.66177,82.45831 128.98509,119.10121 204.10582,83.43151 83.5589,-33.2492 154.91483,-89.52252 231.62563,-135.18448 68.0852,-52.24658 125.53048,-134.82252 115.16895,-224.32259 -12.56119,-87.65008 -94.83838,-139.42506 -128.8385,-217.10664 -14.1925,-31.82792 -19.96934,-69.56239 -4.47767,-101.92117 11.33213,-37.5408 12.41584,-90.75788 -27.90117,-111.34672 -31.3889,-16.8168 -73.21281,-7.47319 -94.4099,21.13228 z"
     id="path5166"
     inkscape:connector-curvature="0" />
  <path
     style="opacity:0.75;fill:#7930be;fill-opacity:1;fill-rule:evenodd;stroke:#000000;stroke-width:0.79997373px;stroke-linecap:butt;stroke-linejoin:miter;stroke-opacity:1"
     d="m 386.16296,1047.761 c -64.34887,21.6372 -106.81868,52.3026 -108.52315,111.8676 -8.84405,86.2949 40.50449,168.9327 107.63098,219.791 71.53419,75.1246 147.83825,159.3319 254.04393,181.2599 87.13218,14.1866 222.31865,-55.6925 250.49,-131.2689 33.81,-89.1655 -35.65557,-190.6201 -10.97667,-282.0707 9.45517,-69.4498 2.80162,-199.41508 -55.28915,-225.40673 -59.62547,-28.02226 -190.44248,-24.02961 -248.8734,26.75513 -54.10338,44.45661 -120.11657,79.3232 -188.50254,99.0727 z"
     id="path5151"
     inkscape:connector-curvature="0"
     sodipodi:nodetypes="ccccccccc" />
  <path
     style="opacity:0.75;fill:#68300c;fill-opacity:1;fill-rule:evenodd;stroke:#000000;stroke-width:0.79997373px;stroke-linecap:butt;stroke-linejoin:miter;stroke-opacity:1"
     d="m 1026.9361,1481.9565 c 124.187,17.734 254.797,54.1848 377.6567,10.0168 37.1073,-9.0847 100.4156,-57.5468 89.2269,-97.1762 -6.3987,-98.5508 -8.9585,-184.4883 -68.8912,-265.3533 -79.8068,-88.0028 -216.9426,-81.6917 -331.4842,-110.7444 -51.4877,20.3228 -90.3162,32.0557 -143.672,81.1252 -18.85305,53.5642 -32.31606,87.5449 -45.29875,141.512 -12.78186,85.2141 18.01753,182.4247 96.32165,226.3823 8.4312,5.2417 17.1676,9.9909 26.1409,14.2376 z"
     id="path5135"
     inkscape:connector-curvature="0"
     sodipodi:nodetypes="ccccccccc" />
  <path
     style="opacity:0.75;fill:#3700ff;fill-opacity:1;fill-rule:evenodd;stroke:#000000;stroke-width:0.82183921px;stroke-linecap:butt;stroke-linejoin:miter;stroke-opacity:1"
     d="m 1373.1402,1061.1132 c 90.7914,41.5755 206.5988,-7.1923 245.4382,-97.9928 30.7808,-65.71244 13.8704,-150.62427 -43.746,-196.1159 -44.166,-45.65155 -98.827,-82.03181 -161.5989,-95.6884 -204.3231,-5.82794 -259.0933,-60.7622 -338.5309,-27.82386 -39.3385,15.06095 -128.77649,22.60386 -108.22704,61.98384 15.1834,44.08036 51.09544,104.86688 81.62314,148.45689 44.312,61.03243 73.6101,54.78078 91.6573,74.40385 46.5629,40.43307 187.3127,91.79258 233.3842,132.77638 z"
     id="path5106"
     inkscape:connector-curvature="0"
     sodipodi:nodetypes="ccccccccc" />
  <path
     style="fill:#009dff;fill-opacity:1;fill-rule:evenodd;stroke:#000000;stroke-width:0.79997373px;stroke-linecap:butt;stroke-linejoin:miter;stroke-opacity:1;opacity:0.75"
     d="m 1509.2014,199.12547 c -129.3204,39.88276 -256.3055,87.16913 -386.6777,123.6652 -33.7851,21.67643 -49.5085,78.20434 -55.5513,122.34651 7.9178,44.99065 34.968,95.05345 71.2563,130.0345 36.2851,35.31579 139.4678,12.02347 184.8116,29.33089 56.0877,15.96703 102.5094,54.37719 159.2377,68.75609 54.3207,16.89732 117.5138,13.88351 164.079,-21.55063 89.0613,-59.91843 121.9447,-183.89758 83.7837,-282.60181 -16.8606,-61.59355 -39.5915,-122.23831 -74.2127,-176.19865 -40.5305,-36.76283 -108.7063,-31.67631 -146.7266,6.2179 z"
     id="path5066"
     inkscape:connector-curvature="0"
     sodipodi:nodetypes="cccccccccc" />
  <path
     style="fill:#b86900;fill-opacity:1;fill-rule:evenodd;stroke:#000000;stroke-width:0.79997373px;stroke-linecap:butt;stroke-linejoin:miter;stroke-opacity:1;opacity:0.75"
     d="M 669.25078,22.524125 C 575.7405,142.43313 550.99426,323.55648 572.38601,466.35099 662.32946,577.74064 851.0322,549.76461 943.92188,455.59001 1032.7645,336.41607 1163.0367,277.66244 1305.0629,254.24483 1440.9151,146.30709 1230.174,65.058275 1133.6161,62.828759 1003.7435,4.196176 849.86227,-31.154196 713.5008,27.725503 698.66407,29.678115 683.09147,28.63634 669.25078,22.524125 Z"
     id="path5051"
     inkscape:connector-curvature="0" />
  <ellipse
     cx="1353.005"
     cy="1306.351"
     rx="90.463257"
     ry="168.17702"
     id="ellipse12"
     style="fill:url(#radialGradient6728);fill-opacity:1;stroke:none" />
  <image
     sodipodi:absref="/home/asklepios/GITs/ttd-graphics/static/classprogession/archer.png"
     xlink:href="archer.png"
     id="image14"
     y="1158.2637"
     x="1273.6157"
     preserveAspectRatio="xMinYMin meet"
     height="300"
     width="132" />
  <g
     class="node"
     id="node2"
     transform="translate(4,1521.95)">
    <title
       id="title17">Sniper</title>
    <ellipse
       style="fill:none;stroke:#000000"
       id="ellipse19"
       ry="18"
       rx="41.692799"
       cy="-160.513"
       cx="1061.35" />
    <text
       style="font-size:14px;font-family:Times, serif;text-anchor:middle"
       id="text21"
       font-size="14.00"
       y="-156.813"
       x="1061.35">Sniper</text>
  </g>
  <g
     class="edge"
     id="edge1"
     transform="translate(4,1521.95)">
    <title
       id="title24">Archer-&gt;Sniper</title>
    <path
       style="fill:none;stroke:#a52a2a;stroke-width:3"
       inkscape:connector-curvature="0"
       id="path26"
       d="m 1267.6049,-266.19258 c -66.97,48.66 -127.7149,48.61958 -176.6549,84.17258"
       sodipodi:nodetypes="cc" />
    <polygon
       style="fill:#a52a2a;stroke:#a52a2a;stroke-width:3"
       id="polygon28"
       points="1088.73,-184.732 1092.85,-179.069 1092.85,-179.069 1082.7,-176.023 " />
    <text
       style="font-size:14px;font-family:Times, serif;text-anchor:middle"
       id="text30"
       font-size="14.00"
       y="-241.1131"
       x="1142.9536">10 Ranks</text>
    <text
       style="font-size:14px;font-family:Times, serif;text-anchor:middle"
       id="text32"
       font-size="14.00"
       y="-226.1131"
       x="1142.9536">27625 Essence</text>
  </g>
  <g
     class="node"
     id="node3"
     transform="translate(-471.08065,1471.9793)">
    <title
       id="title35">Falconeer</title>
    <ellipse
       style="fill:none;stroke:#000000"
       id="ellipse37"
       ry="18"
       rx="57.390499"
       cy="-311.80801"
       cx="1478.63" />
    <text
       style="font-size:14px;font-family:Times, serif;text-anchor:middle"
       id="text39"
       font-size="14.00"
       y="-308.108"
       x="1478.63">Falconeer</text>
  </g>
  <g
     class="edge"
     id="edge2"
     transform="translate(-7.7156278,1624.0433)">
    <title
       id="title42">Archer-&gt;Falconeer</title>
    <path
       style="fill:none;stroke:#a52a2a;stroke-width:3"
       inkscape:connector-curvature="0"
       id="path44"
       d="m 1283.5006,-390.16183 c -53.1817,-11.11591 -215.4404,-69.65229 -213.7004,-68.38229"
       sodipodi:nodetypes="cc" />
    <polygon
       style="fill:#a52a2a;stroke:#a52a2a;stroke-width:3"
       id="polygon46"
       points="1449.77,-337.107 1455.8,-328.397 1445.65,-331.443 1449.77,-337.107 "
       transform="matrix(-1,0,0,-1,2522.4854,-789.86297)" />
    <text
       style="font-size:14px;font-family:Times, serif;text-anchor:middle"
       id="text48"
       font-size="14.00"
       y="-424.08521"
       x="1187.6372">20 Ranks</text>
    <text
       style="font-size:14px;font-family:Times, serif;text-anchor:middle"
       id="text50"
       font-size="14.00"
       y="-409.08521"
       x="1187.6372">157750 Essence</text>
  </g>
  <g
     class="node"
     id="node18"
     transform="translate(669.87803,1841.8583)">
    <title
       id="title53">Mimic</title>
    <ellipse
       style="fill:none;stroke:#000000"
       id="ellipse55"
       ry="18"
       rx="40.093899"
       cy="-1123.09"
       cx="361.99899" />
    <text
       style="font-size:14px;font-family:Times, serif;text-anchor:middle"
       id="text57"
       font-size="14.00"
       y="-1119.39"
       x="361.99899">Mimic</text>
  </g>
  <g
     class="edge"
     id="edge17"
     transform="translate(4,1521.95)">
    <title
       id="title60">Archer-&gt;Mimic</title>
    <path
       style="fill:none;stroke:#a52a2a;stroke-width:3"
       inkscape:connector-curvature="0"
       id="path62"
       d="m 1302.0654,-354.88851 c -199.28,-144.788 -123.9382,-333.07871 -261.6562,-433.13871"
       sodipodi:nodetypes="cc" />
    <polygon
       style="fill:#a52a2a;stroke:#a52a2a;stroke-width:3"
       id="polygon64"
       points="389.352,-1098.89 383.319,-1107.6 393.467,-1104.55 389.352,-1098.89 "
       transform="translate(653.44511,315.48508)" />
    <text
       style="font-size:14px;font-family:Times, serif;text-anchor:middle"
       id="text66"
       font-size="14.00"
       y="-446.86044"
       x="1206.7156">5 Ranks</text>
    <text
       style="font-size:14px;font-family:Times, serif;text-anchor:middle"
       id="text68"
       font-size="14.00"
       y="-431.86044"
       x="1206.7156">7250 Essence</text>
  </g>
  <ellipse
     cx="685.45361"
     cy="1362.3934"
     rx="103.53667"
     ry="178.69717"
     id="ellipse73"
     style="fill:url(#radialGradient6718);fill-opacity:1;stroke:none" />
  <image
     sodipodi:absref="/home/asklepios/GITs/ttd-graphics/static/classprogession/rogue.png"
     xlink:href="rogue.png"
     id="image75"
     y="1211.437"
     x="595.75897"
     preserveAspectRatio="xMinYMin meet"
     height="300"
     width="166" />
  <g
     class="edge"
     id="edge5"
     transform="translate(4,1521.95)">
    <title
       id="title78">Rogue-&gt;Sniper</title>
    <path
       style="fill:none;stroke:#800080;stroke-width:3"
       inkscape:connector-curvature="0"
       id="path80"
       d="m 763.937,-160.513 c 76.042,0 182.728,0 245.503,0" />
    <polygon
       style="fill:#800080;stroke:#800080;stroke-width:3"
       id="polygon82"
       points="1009.5,-157.013 1009.5,-164.013 1009.5,-164.013 1019.5,-160.513 " />
    <text
       style="font-size:14px;font-family:Times, serif;text-anchor:middle"
       id="text84"
       font-size="14.00"
       y="-179.313"
       x="832.18903">10 Ranks</text>
    <text
       style="font-size:14px;font-family:Times, serif;text-anchor:middle"
       id="text86"
       font-size="14.00"
       y="-164.313"
       x="832.18903">27625 Essence</text>
  </g>
  <g
     class="node"
     id="node5"
     transform="translate(4,1521.95)">
    <title
       id="title89">Assasin</title>
    <ellipse
       style="fill:none;stroke:#000000"
       id="ellipse91"
       ry="18"
       rx="46.292301"
       cy="-387.74701"
       cx="361.99899" />
    <text
       style="font-size:14px;font-family:Times, serif;text-anchor:middle"
       id="text93"
       font-size="14.00"
       y="-384.047"
       x="361.99899">Assasin</text>
  </g>
  <g
     class="edge"
     id="edge3"
     transform="translate(4,1521.95)">
    <title
       id="title96">Rogue-&gt;Assasin</title>
    <path
       style="fill:none;stroke:#800080;stroke-width:3"
       inkscape:connector-curvature="0"
       id="path98"
       d="M 591.766,-220.811 C 525.971,-268.614 437.761,-332.703 392.145,-365.844" />
    <polygon
       style="fill:#800080;stroke:#800080;stroke-width:3"
       id="polygon100"
       points="394.021,-368.807 389.907,-363.144 389.907,-363.144 383.874,-371.854 " />
    <text
       style="font-size:14px;font-family:Times, serif;text-anchor:middle"
       id="text102"
       font-size="14.00"
       y="-312.12799"
       x="437.45599">10 Ranks</text>
    <text
       style="font-size:14px;font-family:Times, serif;text-anchor:middle"
       id="text104"
       font-size="14.00"
       y="-297.12799"
       x="437.45599">27625 Essence</text>
  </g>
  <g
     class="node"
     id="node6"
     transform="translate(184.7554,1183.3923)">
    <title
       id="title107">Ninja</title>
    <ellipse
       style="fill:none;stroke:#000000"
       id="ellipse109"
       ry="18"
       rx="36.2938"
       cy="-57.421799"
       cx="641.263" />
    <text
       style="font-size:14px;font-family:Times, serif;text-anchor:middle"
       id="text111"
       font-size="14.00"
       y="-53.721802"
       x="641.263">Ninja</text>
  </g>
  <g
     class="edge"
     id="edge4"
     transform="translate(120.67809,1175.7413)">
    <title
       id="title114">Rogue-&gt;Ninja</title>
    <path
       style="fill:none;stroke:#800080;stroke-width:3"
       inkscape:connector-curvature="0"
       id="path116"
       d="m 641.287,-57.4965 c -0.004,0.0124 -0.008,0.0232 -0.011,0.0326" />
    <polygon
       style="fill:#800080;stroke:#800080;stroke-width:3"
       id="polygon118"
       points="641.269,-57.4406 641.057,-68.0445 647.716,-65.8617 647.716,-65.8617 "
       transform="matrix(-1,0,0,-1,1340.1689,-93.024575)" />
    <text
       style="font-size:14px;font-family:Times, serif;text-anchor:middle"
       id="text120"
       font-size="14.00"
       y="2.8423569"
       x="668.84344">20 Ranks</text>
    <text
       style="font-size:14px;font-family:Times, serif;text-anchor:middle"
       id="text122"
       font-size="14.00"
       y="17.842354"
       x="668.84344">157750 Essence</text>
  </g>
  <g
     class="edge"
     id="edge18"
     transform="translate(4,1521.95)">
    <title
       id="title125">Rogue-&gt;Mimic</title>
    <path
       style="fill:none;stroke:#800080;stroke-width:3"
       inkscape:connector-curvature="0"
       id="path127"
       d="m 629.698,-299.196 c 61.74002,-202.20267 312.8709,-396.92411 376.6019,-486.96492"
       sodipodi:nodetypes="cc" />
    <polygon
       style="fill:#800080;stroke:#800080;stroke-width:3"
       id="polygon129"
       points="374.242,-1096.74 367.584,-1094.57 367.584,-1094.57 367.823,-1105.17 "
       transform="matrix(-1,0,0,1,1375.591,312.87606)" />
    <text
       style="font-size:14px;font-family:Times, serif;text-anchor:middle"
       id="text131"
       font-size="14.00"
       y="-559.77118"
       x="784.04926">5 Ranks</text>
    <text
       style="font-size:14px;font-family:Times, serif;text-anchor:middle"
       id="text133"
       font-size="14.00"
       y="-544.77118"
       x="784.04926">7250 Essence</text>
  </g>
  <ellipse
     cx="836.7757"
     cy="182.14024"
     rx="110.118"
     ry="160.526"
     id="ellipse138"
     style="fill:url(#radialGradient6698);stroke:none;fill-opacity:1" />
  <image
     sodipodi:absref="/home/asklepios/GITs/ttd-graphics/static/classprogession/firemage.png"
     xlink:href="firemage.png"
     id="image140"
     y="32.140244"
     x="733.77771"
     preserveAspectRatio="xMinYMin meet"
     height="300"
     width="206" />
  <g
     class="node"
     id="node8"
     transform="translate(-458.88684,1940.8434)">
    <title
       id="title143">Bombermage</title>
    <ellipse
       style="fill:none;stroke:#000000"
       id="ellipse145"
       ry="18"
       rx="72.5877"
       cy="-1488.03"
       cx="1106.1" />
    <text
       style="font-size:14px;font-family:Times, serif;text-anchor:middle"
       id="text147"
       font-size="14.00"
       y="-1484.33"
       x="1106.1">Bombermage</text>
  </g>
  <g
     class="node"
     id="node9"
     transform="translate(-149.49864,1338.8037)">
    <title
       id="title161">Lightningmage</title>
    <ellipse
       style="fill:none;stroke:#000000"
       id="ellipse163"
       ry="18"
       rx="81.486298"
       cy="-1123.09"
       cx="1374.11" />
    <text
       style="font-size:14px;font-family:Times, serif;text-anchor:middle"
       id="text165"
       font-size="14.00"
       y="-1119.39"
       x="1374.11">Lightningmage</text>
  </g>
  <g
     class="edge"
     id="edge7"
     transform="translate(-215.96689,1425.3559)">
    <title
       id="title168">Firemage-&gt;Lightningmage</title>
    <path
       style="fill:none;stroke:#ff0000;stroke-width:3"
       inkscape:connector-curvature="0"
       id="path170"
       d="m 1160.31,-1278.43 c 62.45,45.38 155.3484,33.1572 197.8284,64.0172"
       sodipodi:nodetypes="cc" />
    <polygon
       style="fill:#ff0000;stroke:#ff0000;stroke-width:3"
       id="polygon172"
       points="1344.12,-1149.21 1350.15,-1140.5 1340.01,-1143.54 1344.12,-1149.21 "
       transform="translate(12.9111,-72.206515)" />
    <text
       style="font-size:14px;font-family:Times, serif;text-anchor:middle"
       id="text174"
       font-size="14.00"
       y="-1229.8354"
       x="1256.6184">5 Ranks</text>
    <text
       style="font-size:14px;font-family:Times, serif;text-anchor:middle"
       id="text176"
       font-size="14.00"
       y="-1214.8354"
       x="1256.6184">7250 Essence</text>
  </g>
  <g
     class="node"
     id="node14"
     transform="translate(-206.04447,1675.9268)">
    <title
       id="title179">Deathdealer</title>
    <ellipse
       style="fill:none;stroke:#000000"
       id="ellipse181"
       ry="18"
       rx="67.688103"
       cy="-1350.33"
       cx="674.75897" />
    <text
       style="font-size:14px;font-family:Times, serif;text-anchor:middle"
       id="text183"
       font-size="14.00"
       y="-1346.63"
       x="674.75897">Deathdealer</text>
  </g>
  <g
     class="edge"
     id="edge14"
     transform="translate(4,1521.95)">
    <title
       id="title186">Firemage-&gt;Deathdealer</title>
    <path
       style="fill:none;stroke:#ff0000;stroke-width:3"
       inkscape:connector-curvature="0"
       id="path188"
       d="m 724.16747,-1301.5547 -224.0862,87.9867"
       sodipodi:nodetypes="cc" />
    <polygon
       style="fill:#ff0000;stroke:#ff0000;stroke-width:3"
       id="polygon190"
       points="752.551,-1346.83 752.551,-1346.83 742.551,-1350.33 752.551,-1353.83 "
       transform="translate(-251.52735,137.71839)" />
    <text
       style="font-size:14px;font-family:Times, serif;text-anchor:middle"
       id="text192"
       font-size="14.00"
       y="-1277.3177"
       x="601.81409">5 Ranks</text>
    <text
       style="font-size:14px;font-family:Times, serif;text-anchor:middle"
       id="text194"
       font-size="14.00"
       y="-1262.3177"
       x="601.81409">7250 Essence</text>
  </g>
  <g
     class="edge"
     id="edge19"
     transform="translate(4,1521.95)">
    <title
       id="title197">Firemage-&gt;Mimic</title>
    <path
       style="fill:none;stroke:#ff0000;stroke-width:3"
       inkscape:connector-curvature="0"
       id="path199"
       d="m 877.10078,-1194.8164 c 41.91758,110.3154 57.26555,274.83426 130.29792,375.8784"
       sodipodi:nodetypes="cc" />
    <polygon
       style="fill:#ff0000;stroke:#ff0000;stroke-width:3"
       id="polygon201"
       points="405.313,-1133.48 394.721,-1133.72 403.15,-1140.14 405.313,-1133.48 "
       transform="matrix(0,-0.9999999,1.0000001,0,2140.9536,-420.46201)" />
    <text
       style="font-size:14px;font-family:Times, serif;text-anchor:middle"
       id="text203"
       font-size="14.00"
       y="-1074.6848"
       x="864.82812">5 Ranks</text>
    <text
       style="font-size:14px;font-family:Times, serif;text-anchor:middle"
       id="text205"
       font-size="14.00"
       y="-1059.6848"
       x="864.82812">7250 Essence</text>
  </g>
  <ellipse
     cx="1527.3354"
     cy="397.29239"
     rx="133.787"
     ry="160.526"
     id="ellipse210"
     style="fill:url(#radialGradient6688);stroke:none;fill-opacity:1" />
  <image
     sodipodi:absref="/home/asklepios/GITs/ttd-graphics/static/classprogession/frostmage.png"
     xlink:href="frostmage.png"
     id="image212"
     y="247.29239"
     x="1402.3354"
     preserveAspectRatio="xMinYMin meet"
     height="300"
     width="250" />
  <g
     class="edge"
     id="edge10"
     transform="translate(33.755493,1152.7114)">
    <title
       id="title215">Frostmage-&gt;Lightningmage</title>
    <path
       style="fill:none;stroke:#add8e6;stroke-width:3"
       inkscape:connector-curvature="0"
       id="path217"
       d="m 1381.8691,-844.71321 c -86.301,-37.85478 -63.0257,-61.80825 -108.7225,-88.04258"
       sodipodi:nodetypes="cc" />
    <polygon
       style="fill:#add8e6;stroke:#add8e6;stroke-width:3"
       id="polygon219"
       points="1379.98,-1105.05 1386.39,-1096.62 1379.74,-1094.45 1379.74,-1094.45 "
       transform="translate(-110.93982,166.40972)" />
    <text
       style="font-size:14px;font-family:Times, serif;text-anchor:middle"
       id="text221"
       font-size="14.00"
       y="-888.88263"
       x="1316.5231">15 Ranks</text>
    <text
       style="font-size:14px;font-family:Times, serif;text-anchor:middle"
       id="text223"
       font-size="14.00"
       y="-873.88263"
       x="1316.5231">73625 Essence</text>
  </g>
  <g
     class="node"
     id="node11"
     transform="translate(-104.20179,1317.7191)">
    <title
       id="title226">Trickster</title>
    <ellipse
       style="fill:none;stroke:#000000"
       id="ellipse228"
       ry="18"
       rx="53.890499"
       cy="-681.25598"
       cx="1615.85" />
    <text
       style="font-size:14px;font-family:Times, serif;text-anchor:middle"
       id="text230"
       font-size="14.00"
       y="-677.55603"
       x="1615.85">Trickster</text>
  </g>
  <g
     class="node"
     id="node12"
     transform="translate(-647.18548,1467.3596)">
    <title
       id="title244">Stormmage</title>
    <ellipse
       style="fill:none;stroke:#000000"
       id="ellipse246"
       ry="18"
       rx="64.988503"
       cy="-1108.16"
       cx="1826.91" />
    <text
       style="font-size:14px;font-family:Times, serif;text-anchor:middle"
       id="text248"
       font-size="14.00"
       y="-1104.46"
       x="1826.91">Stormmage</text>
  </g>
  <g
     class="edge"
     id="edge9"
     transform="translate(33.755493,1152.7114)">
    <title
       id="title251">Frostmage-&gt;Stormmage</title>
    <path
       style="fill:none;stroke:#add8e6;stroke-width:3"
       inkscape:connector-curvature="0"
       id="path253"
       d="m 1358.7711,-773.74525 c -68.5139,-18.94096 -126.3516,27.72044 -160.8582,1.388"
       sodipodi:nodetypes="cc" />
    <polygon
       style="fill:#add8e6;stroke:#add8e6;stroke-width:3"
       id="polygon255"
       points="1810.24,-1090.53 1805.92,-1080.85 1800.83,-1085.66 1800.83,-1085.66 "
       transform="matrix(0,-0.9999999,1.0000001,0,2284.6835,1032.7534)" />
    <text
       style="font-size:14px;font-family:Times, serif;text-anchor:middle"
       id="text257"
       font-size="14.00"
       y="-784.68042"
       x="1280.072">20 Ranks</text>
    <text
       style="font-size:14px;font-family:Times, serif;text-anchor:middle"
       id="text259"
       font-size="14.00"
       y="-769.68042"
       x="1280.072">157750 Essence</text>
  </g>
  <g
     class="edge"
     id="edge20"
     transform="translate(4,1521.95)">
    <title
       id="title262">Frostmage-&gt;Mimic</title>
    <path
       style="fill:none;stroke:#add8e6;stroke-width:3"
       inkscape:connector-curvature="0"
       id="path264"
       d="m 1396.8368,-1068.0719 c -259.7746,48.7938 -269.7743,149.15395 -353.4444,241.17241"
       sodipodi:nodetypes="cc" />
    <polygon
       style="fill:#add8e6;stroke:#add8e6;stroke-width:3"
       id="polygon266"
       points="394.778,-1112.44 405.37,-1112.68 403.207,-1106.02 403.207,-1106.02 "
       transform="matrix(0,-0.9999999,1.0000001,0,2151.8708,-423.55821)" />
    <text
       style="font-size:14px;font-family:Times, serif;text-anchor:middle"
       id="text268"
       font-size="14.00"
       y="-1007.53"
       x="1204.5452">5 Ranks</text>
    <text
       style="font-size:14px;font-family:Times, serif;text-anchor:middle"
       id="text270"
       font-size="14.00"
       y="-992.52997"
       x="1204.5452">7250 Essence</text>
  </g>
  <ellipse
     cx="245.57863"
     cy="774.18201"
     rx="108.14358"
     ry="160.526"
     id="ellipse275"
     style="fill:url(#radialGradient6708);fill-opacity:1;stroke:none" />
  <image
     sodipodi:absref="/home/asklepios/GITs/ttd-graphics/static/classprogession/alchemist.png"
     xlink:href="alchemist.png"
     id="image277"
     y="616.53101"
     x="130.535"
     preserveAspectRatio="xMinYMin meet"
     height="300"
     width="232" />
  <g
     class="edge"
     id="edge13"
     transform="translate(4,1521.95)">
    <title
       id="title280">Alchemist-&gt;Assasin</title>
    <path
       style="fill:none;stroke:#006400;stroke-width:3"
       inkscape:connector-curvature="0"
       id="path282"
       d="m 290.695,-607.197 c 23.306,71.73 49.057,150.982 62.315,191.787" />
    <polygon
       style="fill:#006400;stroke:#006400;stroke-width:3"
       id="polygon284"
       points="349.76,-414.088 356.417,-416.251 356.417,-416.251 356.179,-405.659 " />
    <text
       style="font-size:14px;font-family:Times, serif;text-anchor:middle"
       id="text286"
       font-size="14.00"
       y="-530.104"
       x="267.35199">10 Ranks</text>
    <text
       style="font-size:14px;font-family:Times, serif;text-anchor:middle"
       id="text288"
       font-size="14.00"
       y="-515.104"
       x="267.35199">27625 Essence</text>
  </g>
  <g
     class="edge"
     id="edge11"
     transform="translate(4,1521.95)">
    <title
       id="title291">Alchemist-&gt;Deathdealer</title>
    <path
       style="fill:none;stroke:#006400;stroke-width:3"
       inkscape:connector-curvature="0"
       id="path293"
       d="m 327.67,-872.598 c 103.723,-142.762 72.90933,-228.0367 129.03933,-305.2867"
       sodipodi:nodetypes="cc" />
    <polygon
       style="fill:#006400;stroke:#006400;stroke-width:3"
       id="polygon295"
       points="653.145,-1326.53 653.145,-1326.53 661.854,-1332.56 658.808,-1322.42 "
       transform="translate(-201.67616,149.79265)" />
    <text
       style="font-size:14px;font-family:Times, serif;text-anchor:middle"
       id="text297"
       font-size="14.00"
       y="-1087.27"
       x="437.272">15 Ranks</text>
    <text
       style="font-size:14px;font-family:Times, serif;text-anchor:middle"
       id="text299"
       font-size="14.00"
       y="-1072.27"
       x="437.272">73625 Essence</text>
  </g>
  <g
     class="node"
     id="node15"
     transform="translate(448.71567,1560.2051)">
    <title
       id="title302">Necromancer</title>
    <ellipse
       style="fill:none;stroke:#000000"
       id="ellipse304"
       ry="18"
       rx="74.987503"
       cy="-755.41901"
       cx="95.791298" />
    <text
       style="font-size:14px;font-family:Times, serif;text-anchor:middle"
       id="text306"
       font-size="14.00"
       y="-751.71899"
       x="95.791298">Necromancer</text>
  </g>
  <g
     class="edge"
     id="edge12"
     transform="translate(357.85978,1596.5475)">
    <title
       id="title309">Alchemist-&gt;Necromancer</title>
    <path
       style="fill:none;stroke:#006400;stroke-width:3"
       inkscape:connector-curvature="0"
       id="path311"
       d="m 118.078,-755.419 c -0.052,0 -0.104,0 -0.156,0" />
    <polygon
       style="fill:#006400;stroke:#006400;stroke-width:3"
       id="polygon313"
       points="117.765,-755.419 127.763,-758.926 127.767,-751.926 127.767,-751.926 "
       transform="matrix(-1,0,0,1,234.84121,-40.167863)" />
    <text
       style="font-size:14px;font-family:Times, serif;text-anchor:middle"
       id="text315"
       font-size="14.00"
       y="-774.21899"
       x="59">20 Ranks</text>
    <text
       style="font-size:14px;font-family:Times, serif;text-anchor:middle"
       id="text317"
       font-size="14.00"
       y="-759.21899"
       x="59">157750 Essence</text>
  </g>
  <g
     class="edge"
     id="edge21"
     transform="translate(4,1521.95)">
    <title
       id="title320">Alchemist-&gt;Mimic</title>
    <path
       style="fill:none;stroke:#006400;stroke-width:3"
       inkscape:connector-curvature="0"
       id="path322"
       d="m 328.84937,-627.85052 c 62.52915,49.997 611.67054,-147.92566 656.71282,-158.30391"
       sodipodi:nodetypes="cc" />
    <polygon
       style="fill:#006400;stroke:#006400;stroke-width:3"
       id="polygon324"
       points="349.76,-1096.75 356.179,-1105.18 356.417,-1094.59 349.76,-1096.75 "
       transform="matrix(0,-0.9999999,-1.0000001,0,-108.96223,-435.8813)" />
    <text
       style="font-size:14px;font-family:Times, serif;text-anchor:middle"
       id="text326"
       font-size="14.00"
       y="-614.72961"
       x="458.63425">5 Ranks</text>
    <text
       style="font-size:14px;font-family:Times, serif;text-anchor:middle"
       id="text328"
       font-size="14.00"
       y="-599.72961"
       x="458.63425">7250 Essence</text>
  </g>
  <ellipse
     cx="1458.5776"
     cy="875.72656"
     rx="95.4188"
     ry="160.526"
     id="ellipse333"
     style="fill:url(#radialGradient6678);stroke:none;fill-opacity:1" />
  <image
     sodipodi:absref="/home/asklepios/GITs/ttd-graphics/static/classprogession/bard.png"
     xlink:href="bard.png"
     id="image335"
     y="725.72656"
     x="1369.5776"
     preserveAspectRatio="xMinYMin meet"
     height="300"
     width="178" />
  <g
     class="edge"
     id="edge15"
     transform="translate(-436.92231,1457.0289)">
    <title
       id="title338">Bard-&gt;Trickster</title>
    <path
       style="fill:none;stroke:#0000ff;stroke-width:3"
       inkscape:connector-curvature="0"
       id="path340"
       d="m 1916.5398,-737.03646 c 0.061,-26.16369 28.3809,-41.46284 30.2924,-65.24577"
       sodipodi:nodetypes="cc" />
    <polygon
       style="fill:#0000ff;stroke:#0000ff;stroke-width:3"
       id="polygon342"
       points="1678.17,-678.593 1677.48,-671.627 1677.48,-671.627 1667.88,-676.097 "
       transform="matrix(0,0.9999999,-1.0000001,0,1269.7583,-2473.5845)" />
    <text
       style="font-size:14px;font-family:Times, serif;text-anchor:middle"
       id="text344"
       font-size="14.00"
       y="-767.54443"
       x="1976.1525">10 Ranks</text>
    <text
       style="font-size:14px;font-family:Times, serif;text-anchor:middle"
       id="text346"
       font-size="14.00"
       y="-752.54443"
       x="1976.1525">27625 Essence</text>
  </g>
  <g
     class="node"
     id="node17"
     transform="translate(-998.28387,1404.3155)">
    <title
       id="title349">Scout</title>
    <ellipse
       style="fill:none;stroke:#000000"
       id="ellipse351"
       ry="18"
       rx="37.894299"
       cy="-626.31897"
       cx="2169.8" />
    <text
       style="font-size:14px;font-family:Times, serif;text-anchor:middle"
       id="text353"
       font-size="14.00"
       y="-622.61902"
       x="2169.8">Scout</text>
  </g>
  <g
     class="edge"
     id="edge16"
     transform="translate(4,1521.95)">
    <title
       id="title356">Bard-&gt;Scout</title>
    <path
       style="fill:none;stroke:#0000ff;stroke-width:3"
       inkscape:connector-curvature="0"
       id="path358"
       d="m 1362.8697,-686.54599 c -43.8722,-17.2855 -115.9658,-49.30605 -148.1322,-59.24434"
       sodipodi:nodetypes="cc" />
    <polygon
       style="fill:#0000ff;stroke:#0000ff;stroke-width:3"
       id="polygon360"
       points="2122.38,-627.504 2123.08,-634.47 2123.08,-634.47 2132.68,-630 "
       transform="matrix(-1,0,0,1,3337.8378,-116.67807)" />
    <text
       style="font-size:14px;font-family:Times, serif;text-anchor:middle"
       id="text362"
       font-size="14.00"
       y="-726.48669"
       x="1279.962">15 Ranks</text>
    <text
       style="font-size:14px;font-family:Times, serif;text-anchor:middle"
       id="text364"
       font-size="14.00"
       y="-711.48669"
       x="1279.962">73625 Essence</text>
  </g>
  <g
     class="edge"
     id="edge14-6"
     transform="translate(108.12299,1411.6983)">
    <title
       id="title186-2">Firemage-&gt;Deathdealer</title>
    <path
       style="fill:none;stroke:#ff0000;stroke-width:3"
       inkscape:connector-curvature="0"
       id="path188-9"
       d="M 658.65559,-1105.9755 552.68205,-976.86457"
       sodipodi:nodetypes="cc" />
    <polygon
       style="fill:#ff0000;stroke:#ff0000;stroke-width:3"
       id="polygon190-1"
       points="752.551,-1346.83 752.551,-1346.83 742.551,-1350.33 752.551,-1353.83 "
       transform="matrix(0,-0.9999999,1.0000001,0,1902.7801,-230.26996)" />
  </g>
  <g
     class="edge"
     id="edge6"
     transform="translate(-445.49755,1862.8986)">
    <title
       id="title150">Firemage-&gt;Bombermage</title>
    <path
       style="fill:none;stroke:#ff0000;stroke-width:3"
       inkscape:connector-curvature="0"
       id="path152"
       d="m 1106.06,-1487.93 c 0.01,-0.02 0.01,-0.03 0.02,-0.05" />
    <text
       style="font-size:14px;font-family:Times, serif;text-anchor:middle"
       id="text156"
       font-size="14.00"
       y="-1506.75"
       x="1160.5699">10 Ranks</text>
    <text
       style="font-size:14px;font-family:Times, serif;text-anchor:middle"
       id="text158"
       font-size="14.00"
       y="-1491.75"
       x="1160.5699">27625 Essence</text>
  </g>
  <g
     class="edge"
     id="edge20-0"
     transform="translate(704.47535,1511.7933)">
    <title
       id="title262-9">Frostmage-&gt;Mimic</title>
    <path
       style="fill:none;stroke:#add8e6;stroke-width:3"
       inkscape:connector-curvature="0"
       id="path264-3"
       d="m 830.80617,-954.46003 c -23.08318,18.36205 12.73977,43.47805 -21.68997,60.82042"
       sodipodi:nodetypes="cc" />
  </g>
  <g
     class="edge"
     id="edge8"
     transform="translate(-23.050448,1278.496)">
    <title
       id="title233">Frostmage-&gt;Trickster</title>
    <path
       style="fill:none;stroke:#add8e6;stroke-width:3"
       inkscape:connector-curvature="0"
       id="path235"
       d="m 1613.3,-682.805 c 0.05,0.031 0.1,0.062 0.15,0.092" />
    <polygon
       style="fill:#add8e6;stroke:#add8e6;stroke-width:3"
       id="polygon237"
       points="1606.87,-690.805 1613.6,-682.623 1603.23,-684.819 1606.87,-690.805 "
       transform="matrix(0,0.9999999,-1.0000001,0,852.72232,-2267.4022)" />
    <text
       style="font-size:14px;font-family:Times, serif;text-anchor:middle"
       id="text239"
       font-size="14.00"
       y="-695.47266"
       x="1578.6135">10 Ranks</text>
    <text
       style="font-size:14px;font-family:Times, serif;text-anchor:middle"
       id="text241"
       font-size="14.00"
       y="-680.47266"
       x="1578.6135">27625 Essence</text>
  </g>
  <g
     class="edge"
     id="edge3-2"
     transform="translate(370.18524,1540.3331)">
    <title
       id="title96-6">Rogue-&gt;Assasin</title>
    <path
       style="fill:none;stroke:#800080;stroke-width:3"
       inkscape:connector-curvature="0"
       id="path98-1"
       d="m 365.21849,-301.96234 c 9.27,-28.86769 63.07485,-55.08606 83.73245,-94.31341"
       sodipodi:nodetypes="cc" />
  </g>
  <g
     class="edge"
     id="edge13-2"
     transform="translate(248.15472,1385.8517)">
    <title
       id="title280-0">Alchemist-&gt;Assasin</title>
    <path
       style="fill:none;stroke:#006400;stroke-width:3"
       inkscape:connector-curvature="0"
       id="path282-2"
       d="m 121.41613,-589.9822 c 51.99734,20.0856 58.62078,-4.90756 100.57011,3.38059"
       sodipodi:nodetypes="cc" />
  </g>
</svg>
